HIERARCHY
ROOT SpineBase
{
  OFFSET 0.000000 0.000000 0.000000
  CHANNELS 6 Xposition Yposition Zposition Zrotation Xrotation Yrotation
  JOINT SpineMid
  {
    OFFSET 0.000000 31.811297 0.000000
    CHANNELS 3 Zrotation Xrotation Yrotation
    JOINT SpineShoulder
    {
      OFFSET -0.221537 23.595431 -1.114061
      CHANNELS 3 Zrotation Xrotation Yrotation
      JOINT Neck
      {
        OFFSET -0.140590 7.856071 -0.768482
        CHANNELS 3 Zrotation Xrotation Yrotation
        JOINT Head
        {
          OFFSET -2.848958 10.069670 4.355066
          CHANNELS 3 Zrotation Xrotation Yrotation
          End Site
          {
            OFFSET 0 0 0
          }
        }
      }
      JOINT ShoulderLeft
      {
        OFFSET -12.496130 -8.686144 -17.045471
        CHANNELS 3 Zrotation Xrotation Yrotation
        JOINT ElbowLeft
        {
          OFFSET 5.998744 -24.490763 -2.451757
          CHANNELS 3 Zrotation Xrotation Yrotation
          JOINT WristLeft
          {
            OFFSET -13.117756 -21.463621 0.744924
            CHANNELS 3 Zrotation Xrotation Yrotation
            JOINT HandLeft
            {
              OFFSET 4.410247 -2.822366 6.491111
              CHANNELS 3 Zrotation Xrotation Yrotation
              JOINT HandTipLeft
              {
                OFFSET -1.650758 -5.755104 0.973496
                CHANNELS 3 Zrotation Xrotation Yrotation
                End Site
                {
                  OFFSET 0 0 0
                }
              }
              JOINT ThumbLeft
              {
                OFFSET -1.308484 -1.427787 -1.713500
                CHANNELS 3 Zrotation Xrotation Yrotation
                End Site
                {
                  OFFSET 0 0 0
                }
              }
            }
          }
        }
      }
      JOINT ShoulderRight
      {
        OFFSET 0.523313 -4.704547 -12.877401
        CHANNELS 3 Zrotation Xrotation Yrotation
        JOINT ElbowRight
        {
          OFFSET -6.235077 -23.678867 -5.449446
          CHANNELS 3 Zrotation Xrotation Yrotation
          JOINT WristRight
          {
            OFFSET -6.869477 -24.480038 4.755705
            CHANNELS 3 Zrotation Xrotation Yrotation
            JOINT HandRight
            {
              OFFSET -1.627238 -5.201540 1.964026
              CHANNELS 3 Zrotation Xrotation Yrotation
              JOINT HandTipRight
              {
                OFFSET -0.274831 -6.582712 0.156136
                CHANNELS 3 Zrotation Xrotation Yrotation
                End Site
                {
                  OFFSET 0 0 0
                }
              }
              JOINT ThumbRight
              {
                OFFSET 3.017632 0.314430 0.390376
                CHANNELS 3 Zrotation Xrotation Yrotation
                End Site
                {
                  OFFSET 0 0 0
                }
              }
            }
          }
        }
      }
    }
  }
  JOINT HipLeft
  {
    OFFSET -4.368686 0.180903 -0.673874
    CHANNELS 3 Zrotation Xrotation Yrotation
    JOINT KneeLeft
    {
      OFFSET 17.041391 -26.915239 4.950614
      CHANNELS 3 Zrotation Xrotation Yrotation
      JOINT AnkleLeft
      {
        OFFSET 6.375884 -31.464989 4.295897
        CHANNELS 3 Zrotation Xrotation Yrotation
        JOINT FootLeft
        {
          OFFSET -2.071958 -4.446233 -6.665366
          CHANNELS 3 Zrotation Xrotation Yrotation
          End Site
          {
            OFFSET 0 0 0
          }
        }
      }
    }
  }
  JOINT HipRight
  {
    OFFSET 4.590059 2.349323 -6.300778
    CHANNELS 3 Zrotation Xrotation Yrotation
    JOINT KneeRight
    {
      OFFSET -1.761216 -28.216169 -1.915834
      CHANNELS 3 Zrotation Xrotation Yrotation
      JOINT AnkleRight
      {
        OFFSET 7.973747 -32.587817 0.267235
        CHANNELS 3 Zrotation Xrotation Yrotation
        JOINT FootRight
        {
          OFFSET -3.092491 -5.695973 -2.077482
          CHANNELS 3 Zrotation Xrotation Yrotation
          End Site
          {
            OFFSET 0 0 0
          }
        }
      }
    }
  }
}
MOTION
Frames: 13
Frame Time: 0.033333
-0.852210 64.851112 313.172782 0.378962 -0.704042 34.590330 0.087706 0.794725 -34.588610 -0.000000 0.000000 0.000000 -1.243324 -1.003644 0.244574 0.000000 0.000000 0.000000 -0.000000 0.000000 0.000000 -0.000000 0.000000 0.000000 -0.000000 0.000000 0.000000 5.210432 3.867610 -0.411579 0.000000 0.000000 0.000000 0.000000 0.000000 0.000000 -0.000000 0.000000 0.000000 -0.000000 0.000000 0.000000 2.466102 0.306758 0.835193 -1.657508 -3.738554 -0.654449 0.000000 0.000000 0.000000 0.000000 0.000000 0.000000 0.387670 -0.876352 -35.127136 -2.418949 3.611455 0.934137 9.704125 1.930214 -14.702771 0.000000 0.000000 0.000000 0.087706 0.794725 -34.588610 -0.657711 0.777499 0.189591 6.527450 -3.082416 -0.913483 0.000000 0.000000 0.000000
-0.728714 64.891466 313.119731 0.563368 -0.630681 34.111102 -0.112784 0.838099 -34.107176 -0.000000 0.000000 0.000000 -1.333732 -1.074642 0.262223 0.000000 0.000000 0.000000 -0.000000 0.000000 0.000000 -0.000000 0.000000 0.000000 0.375108 -1.382014 -1.251257 6.343771 7.644818 0.104883 0.000000 0.000000 0.000000 0.000000 0.000000 0.000000 -0.000000 0.000000 0.000000 -0.000000 0.000000 0.000000 3.051353 0.098517 1.128710 -2.519822 -3.101389 -0.976290 0.000000 0.000000 0.000000 0.000000 0.000000 0.000000 -0.058752 -0.954151 -34.828611 -2.365725 4.048893 1.158935 11.291287 5.471661 -18.124270 0.000000 0.000000 0.000000 -0.112784 0.838099 -34.107176 -0.764199 0.884408 0.216404 5.237975 -8.855421 3.008137 0.000000 0.000000 0.000000
-0.720337 64.963345 313.120533 0.590009 -0.631885 34.303279 -0.131305 0.854480 -34.299047 -0.000000 0.000000 0.000000 -1.391416 -1.067334 0.289020 0.000000 0.000000 0.000000 -0.000000 0.000000 0.000000 -0.000000 0.000000 0.000000 0.325892 -2.600596 -3.129398 7.203561 12.081070 0.859235 0.000000 0.000000 0.000000 0.000000 0.000000 0.000000 -0.000000 0.000000 0.000000 -0.000000 0.000000 0.000000 3.121527 -0.567137 1.380935 -3.586597 -1.053877 -1.289037 0.000000 0.000000 0.000000 0.000000 0.000000 0.000000 -0.118434 -1.286736 -35.182128 -2.754380 4.851078 1.427858 13.551422 10.962499 -22.680906 0.000000 0.000000 0.000000 0.030370 -0.070561 -34.302605 -1.510952 1.760744 0.284169 5.610866 -8.390054 2.477608 0.000000 0.000000 0.000000
-0.772571 64.857400 313.132183 0.531035 -0.643585 34.659783 -0.070816 0.831368 -34.656287 -0.000000 0.000000 0.000000 -1.427331 -1.076962 0.301507 0.000000 0.000000 0.000000 -0.000000 0.000000 0.000000 -0.000000 0.000000 0.000000 -0.139092 -3.166323 -4.963337 14.959551 19.028283 0.303863 0.000000 0.000000 0.000000 0.000000 0.000000 0.000000 -0.000000 0.000000 0.000000 -0.000000 0.000000 0.000000 2.943952 0.144149 1.072136 -3.658324 -2.280875 -1.016737 0.000000 0.000000 0.000000 0.000000 0.000000 0.000000 0.083412 -2.235890 -35.835626 -3.811358 6.301639 1.924079 14.865878 11.804806 -24.393723 0.000000 0.000000 0.000000 0.125497 -0.398166 -34.659308 -1.786834 2.196826 0.344606 9.081767 4.393307 -6.737583 0.000000 0.000000 0.000000
-0.797746 64.668981 313.121274 0.522991 -0.617336 35.180438 -0.071805 0.805889 -35.177116 -0.000000 0.000000 0.000000 -1.332762 -1.051291 0.268714 0.000000 0.000000 0.000000 -0.000000 0.000000 0.000000 -0.000000 0.000000 0.000000 -0.115017 -2.984292 -4.657416 16.623710 22.304412 -1.642389 0.000000 0.000000 0.000000 0.000000 0.000000 0.000000 -0.000000 0.000000 0.000000 -0.000000 0.000000 0.000000 2.531775 0.310169 0.859031 -3.561223 -1.728723 -0.852126 0.000000 0.000000 0.000000 0.000000 0.000000 0.000000 0.241887 -3.008259 -36.554511 -4.695727 7.302040 2.275022 14.035881 12.805515 -23.198133 0.000000 0.000000 0.000000 0.051457 -0.655913 -35.171144 -1.895849 2.564101 0.379206 14.343347 14.884278 -15.860197 0.000000 0.000000 0.000000
-0.807478 64.452648 313.106394 0.533590 -0.583996 35.610862 -0.093779 0.785472 -35.607500 -0.000000 0.000000 0.000000 -1.094884 -1.056611 0.165607 0.000000 0.000000 0.000000 -0.000000 0.000000 0.000000 -0.000000 0.000000 0.000000 -0.106405 -2.309861 -3.689702 13.366367 19.483188 -1.453452 0.000000 0.000000 0.000000 0.000000 0.000000 0.000000 -0.000000 0.000000 0.000000 -0.000000 0.000000 0.000000 2.275594 0.336674 0.752835 -3.592454 -2.415352 -0.738506 0.000000 0.000000 0.000000 0.000000 0.000000 0.000000 0.310965 -3.934838 -37.273870 -5.710111 8.535588 2.763131 13.387607 13.347218 -22.122715 0.000000 0.000000 0.000000 -0.000526 -0.757971 -35.598737 -1.939391 2.723762 0.400134 18.783515 21.187924 -22.549567 0.000000 0.000000 0.000000
-0.742689 64.216266 313.072983 0.645878 -0.528414 36.079379 -0.210849 0.807411 -36.074915 -0.000000 0.000000 0.000000 -0.822878 -0.979950 0.072012 0.000000 0.000000 0.000000 -0.000000 0.000000 0.000000 -0.000000 0.000000 0.000000 -0.062756 -1.180441 -1.944999 10.756879 16.940234 -2.530015 0.000000 0.000000 0.000000 0.000000 0.000000 0.000000 0.456839 -0.680745 0.077017 -0.455956 0.681337 -0.071592 2.117708 0.696707 0.573499 -3.832130 -1.923209 -0.624909 0.000000 0.000000 0.000000 0.000000 0.000000 0.000000 0.277717 -4.064186 -37.732911 -5.844225 8.429692 2.733176 10.125233 8.459614 -16.445878 0.000000 0.000000 0.000000 -0.327546 -0.580772 -36.049429 -1.571243 2.658427 0.363542 21.206355 23.577817 -25.751309 0.000000 0.000000 0.000000
-0.691491 64.019422 313.050527 0.739354 -0.488501 36.433349 -0.304776 0.832095 -36.427983 -0.000000 0.000000 0.000000 -0.613506 -0.874581 0.013276 0.000000 0.000000 0.000000 -0.789859 -0.485039 -0.043166 0.789522 0.485587 0.036477 0.198854 -0.785525 -0.754822 5.313843 15.616082 -3.479725 0.000000 0.000000 0.000000 0.000000 0.000000 0.000000 0.529173 -0.654250 0.053650 -0.528595 0.654718 -0.047609 1.893953 0.871823 0.431508 -4.931359 -1.751188 -0.562365 0.000000 0.000000 0.000000 0.000000 0.000000 0.000000 0.189902 -4.613848 -38.283853 -6.452633 9.121021 3.044104 10.613268 10.045077 -17.374518 0.000000 0.000000 0.000000 -0.554804 -0.186682 -36.393531 -1.117292 2.331842 0.319169 21.412266 23.854218 -26.108824 0.000000 0.000000 0.000000
-0.649307 63.885482 313.033930 0.828388 -0.458984 36.667858 -0.390421 0.862822 -36.661600 -0.000000 0.000000 0.000000 -0.386273 -0.773024 -0.054466 0.000000 0.000000 0.000000 -0.957403 -0.696665 -0.080831 0.956490 0.697918 0.069184 0.481441 -0.084583 0.967432 6.373091 13.965045 -4.867449 0.000000 0.000000 0.000000 0.000000 0.000000 0.000000 0.582943 -0.571863 0.019381 -0.582778 0.572030 -0.013563 1.612166 1.510632 0.115993 -4.036491 -2.290309 -0.262950 0.000000 0.000000 0.000000 0.000000 0.000000 0.000000 0.193873 -3.845402 -38.178451 -5.669113 7.770675 2.477239 8.634295 5.303892 -13.499571 0.000000 0.000000 0.000000 -0.390421 0.862822 -36.661600 -0.606173 1.264503 0.311567 19.556507 19.267882 -21.895930 0.000000 0.000000 0.000000
-0.617119 63.835346 313.023231 0.908155 -0.452686 36.690445 -0.457819 0.905578 -36.683239 -0.000000 0.000000 0.000000 -0.000000 0.000000 0.000000 0.000000 0.000000 0.000000 -1.152659 -0.901406 -0.114839 1.150993 0.903532 0.096696 1.362085 -0.354712 2.517621 4.979974 12.691032 -5.982154 0.000000 0.000000 0.000000 0.000000 0.000000 0.000000 -0.000000 0.000000 0.000000 -0.000000 0.000000 0.000000 2.105923 1.826244 0.192587 -4.661405 -2.182884 -0.393175 0.000000 0.000000 0.000000 0.000000 0.000000 0.000000 0.182248 -3.233853 -37.954226 -5.102485 6.738830 2.065722 7.744300 2.544581 -11.416030 0.000000 0.000000 0.000000 -0.457819 0.905578 -36.683239 -0.606164 1.229038 0.302687 16.030015 11.872095 -14.957815 0.000000 0.000000 0.000000
-0.601439 63.894613 313.015875 0.971089 -0.449747 36.331101 -0.515943 0.937600 -36.323068 -0.000000 0.000000 0.000000 -0.000000 0.000000 0.000000 0.000000 0.000000 0.000000 -1.353722 -1.082741 -0.143028 1.351258 1.085815 0.117431 2.026572 -0.690930 3.449656 6.674907 11.349417 -6.267484 0.000000 0.000000 0.000000 0.000000 0.000000 0.000000 -0.000000 0.000000 0.000000 -0.000000 0.000000 0.000000 2.596095 2.157639 0.260142 -4.872231 -3.134269 -0.473562 0.000000 0.000000 0.000000 0.000000 0.000000 0.000000 0.063319 -2.874600 -37.516718 -4.746518 6.274566 1.909302 7.414960 -0.506195 -9.834633 0.000000 0.000000 0.000000 -0.515943 0.937600 -36.323068 -0.653012 1.163215 0.286327 11.837969 1.841948 -6.350932 0.000000 0.000000 0.000000
-0.601136 64.058987 313.016162 1.018340 -0.465435 35.636685 -0.556542 0.971552 -35.627830 -0.000000 0.000000 0.000000 -0.000000 0.000000 0.000000 0.000000 0.000000 0.000000 -1.533802 -1.214745 -0.160952 1.530730 1.218614 0.128411 2.848754 -1.295463 4.281195 7.551505 11.516214 -6.973505 0.000000 0.000000 0.000000 0.000000 0.000000 0.000000 0.883518 -0.048990 -0.190464 -0.883676 0.046047 0.191197 3.548204 2.508256 0.486404 -5.954064 -3.636340 -0.774467 0.000000 0.000000 0.000000 0.000000 0.000000 0.000000 -0.066992 -2.115143 -36.611743 -3.951916 5.161258 1.527405 7.477869 -1.737004 -9.497317 0.000000 0.000000 0.000000 -0.556542 0.971552 -35.627830 -0.718015 1.077027 0.264827 7.664070 -11.185324 3.684671 0.000000 0.000000 0.000000
-0.689799 64.250387 313.039489 0.958110 -0.522077 35.460160 -0.477609 0.981034 -35.451706 -0.000000 0.000000 0.000000 -0.000000 0.000000 0.000000 0.000000 0.000000 0.000000 -1.672719 -1.271981 -0.163439 1.669498 1.276206 0.126274 3.523038 -2.152724 4.402880 8.331502 11.333246 -6.725035 0.000000 0.000000 0.000000 0.000000 0.000000 0.000000 1.045377 0.112239 -0.271759 -1.044835 -0.117177 0.269666 4.302836 1.919601 0.970270 -7.835672 -2.418799 -1.297649 0.000000 0.000000 0.000000 0.000000 0.000000 0.000000 0.064686 -1.899493 -36.332322 -3.840746 4.815738 1.377449 8.358413 -0.742415 -11.141799 0.000000 0.000000 0.000000 -0.477609 0.981034 -35.451706 -0.775230 1.055287 0.259451 6.793173 -12.487659 4.794229 0.000000 0.000000 0.000000
